<svg xmlns="http://www.w3.org/2000/svg" viewBox="0 0 160 160" role="img" aria-label="Kelime Meydanı işareti">
  <defs>
    <linearGradient id="tile" x1="0" x2="1" y1="0" y2="1">
      <stop offset="0" stop-color="#f8dfa2"/>
      <stop offset="1" stop-color="#d99c45"/>
    </linearGradient>
    <linearGradient id="field" x1="0" x2="1" y1="0" y2="1">
      <stop offset="0" stop-color="#0f8d67"/>
      <stop offset="1" stop-color="#16646f"/>
    </linearGradient>
  </defs>
  <rect width="160" height="160" rx="32" fill="#18212b"/>
  <rect x="18" y="18" width="124" height="124" rx="20" fill="url(#field)"/>
  <g fill="none" stroke="#d7f2e6" stroke-opacity=".5" stroke-width="2">
    <path d="M49 20v120M80 20v120M111 20v120M20 49h120M20 80h120M20 111h120"/>
  </g>
  <rect x="42" y="42" width="34" height="34" rx="7" fill="url(#tile)"/>
  <rect x="84" y="42" width="34" height="34" rx="7" fill="#f06f5f"/>
  <rect x="42" y="84" width="34" height="34" rx="7" fill="#55c5d1"/>
  <rect x="84" y="84" width="34" height="34" rx="7" fill="url(#tile)"/>
  <g font-family="Arial, sans-serif" font-weight="800" text-anchor="middle" fill="#18212b">
    <text x="59" y="66" font-size="25">K</text>
    <text x="101" y="66" font-size="25">E</text>
    <text x="59" y="108" font-size="25">L</text>
    <text x="101" y="108" font-size="25">M</text>
  </g>
</svg>
